<svg width="37" height="37" viewBox="0 0 37 37" fill="none" xmlns="http://www.w3.org/2000/svg">
<g clip-path="url(#clip0_5557_2563)">
<path d="M37 34.6875C37 35.964 35.964 37 34.6875 37H2.3125C1.036 37 0 35.964 0 34.6875V2.3125C0 1.036 1.036 0 2.3125 0H34.6875C35.964 0 37 1.036 37 2.3125V34.6875Z" fill="#3B5998"/>
<path d="M25.4375 37V23.125H30.0625L31.2188 17.3438H25.4375V15.0312C25.4375 12.7188 26.5961 11.5625 28.9062 11.5625H31.2188V5.78125C30.0625 5.78125 28.6287 5.78125 26.5938 5.78125C22.3445 5.78125 19.6562 9.11241 19.6562 13.875V17.3438H15.0312V23.125H19.6562V37H25.4375Z" fill="white"/>
</g>
<defs>
<clipPath id="clip0_5557_2563">
<rect width="37" height="37" fill="white"/>
</clipPath>
</defs>
</svg>
