<svg width="37" height="37" viewBox="0 0 37 37" fill="none" xmlns="http://www.w3.org/2000/svg">
<g clip-path="url(#clip0_5557_2594)">
<path d="M32.375 37H4.625C2.072 37 0 34.928 0 32.375V4.625C0 2.072 2.072 0 4.625 0H32.375C34.928 0 37 2.072 37 4.625V32.375C37 34.928 34.928 37 32.375 37Z" fill="#1DA1F2"/>
<path d="M14.2066 27.898C22.9293 27.898 27.7023 20.6645 27.7023 14.4022C27.7023 14.1987 27.7023 13.9952 27.6931 13.7917C28.6181 13.1257 29.4228 12.284 30.0611 11.3312C29.2101 11.7105 28.2943 11.9602 27.3323 12.0805C28.3128 11.4977 29.0621 10.5635 29.4228 9.45349C28.5071 9.99924 27.4896 10.3877 26.4073 10.6005C25.5378 9.67549 24.3076 9.10199 22.9478 9.10199C20.3301 9.10199 18.2026 11.2295 18.2026 13.8472C18.2026 14.2172 18.2488 14.578 18.3228 14.9295C14.3823 14.7352 10.8858 12.839 8.54556 9.97149C8.13856 10.6745 7.90731 11.4885 7.90731 12.358C7.90731 14.0045 8.74906 15.4567 10.0163 16.3077C9.23931 16.28 8.50856 16.0672 7.87031 15.7157V15.7805C7.87031 18.0745 9.50756 19.9985 11.6721 20.4332C11.2743 20.5442 10.8581 20.5997 10.4233 20.5997C10.1181 20.5997 9.82206 20.572 9.53531 20.5165C10.1366 22.4035 11.8941 23.7725 13.9661 23.8095C12.3381 25.086 10.2938 25.8445 8.07381 25.8445C7.69456 25.8445 7.31531 25.826 6.94531 25.7797C9.03581 27.1117 11.5333 27.898 14.2066 27.898Z" fill="white"/>
</g>
<defs>
<clipPath id="clip0_5557_2594">
<rect width="37" height="37" fill="white"/>
</clipPath>
</defs>
</svg>
