<svg width="37" height="37" viewBox="0 0 37 37" fill="none" xmlns="http://www.w3.org/2000/svg">
<g clip-path="url(#clip0_5557_2628)">
<path fill-rule="evenodd" clip-rule="evenodd" d="M37 4.625C37 2.07236 34.9276 0 32.375 0H4.625C2.07236 0 0 2.07236 0 4.625V32.375C0 34.9276 2.07236 37 4.625 37H32.375C34.9276 37 37 34.9276 37 32.375V4.625Z" fill="#2867B2"/>
<path d="M10.6077 12.9115H4.41016V31.5533H10.6077V12.9115Z" fill="white"/>
<path d="M7.55263 3.92258C5.43228 3.92258 4.04688 5.31658 4.04688 7.14367C4.04688 8.93239 5.39015 10.3648 7.4706 10.3648H7.51064C9.6716 10.3648 11.0167 8.93239 11.0167 7.14367C10.9766 5.31658 9.67174 3.92258 7.55263 3.92258Z" fill="white"/>
<path d="M25.8194 12.4731C22.532 12.4731 21.0595 14.281 20.235 15.5508V12.9115H14.0391C14.1212 14.6601 14.0391 31.5532 14.0391 31.5532H20.2349V21.1423C20.2349 20.5851 20.2749 20.028 20.4392 19.6297C20.8864 18.5168 21.9065 17.3641 23.6184 17.3641C25.8595 17.3641 26.7573 19.0741 26.7573 21.5791V31.5532H32.9534V20.8629C32.9534 15.1368 29.8962 12.4731 25.8194 12.4731Z" fill="white"/>
</g>
<defs>
<clipPath id="clip0_5557_2628">
<rect width="37" height="37" fill="white"/>
</clipPath>
</defs>
</svg>
