<svg width="34" height="34" viewBox="0 0 34 34" fill="none" xmlns="http://www.w3.org/2000/svg">
<g clip-path="url(#clip0_77_1902)">
<path d="M29.75 1.0625H4.25C3.12323 1.06379 2.04297 1.51198 1.24622 2.30872C0.449476 3.10547 0.00129356 4.18573 0 5.3125L0 28.6875C0.00129356 29.8143 0.449476 30.8945 1.24622 31.6913C2.04297 32.488 3.12323 32.9362 4.25 32.9375H29.75C30.8768 32.9362 31.957 32.488 32.7538 31.6913C33.5505 30.8945 33.9987 29.8143 34 28.6875V5.3125C33.9987 4.18573 33.5505 3.10547 32.7538 2.30872C31.957 1.51198 30.8768 1.06379 29.75 1.0625ZM31.875 28.6875C31.875 29.2511 31.6511 29.7916 31.2526 30.1901C30.8541 30.5886 30.3136 30.8125 29.75 30.8125H4.25C3.68641 30.8125 3.14591 30.5886 2.7474 30.1901C2.34888 29.7916 2.125 29.2511 2.125 28.6875V5.3125C2.125 4.74891 2.34888 4.20841 2.7474 3.8099C3.14591 3.41138 3.68641 3.1875 4.25 3.1875H29.75C30.3136 3.1875 30.8541 3.41138 31.2526 3.8099C31.6511 4.20841 31.875 4.74891 31.875 5.3125V28.6875Z" fill="#FF914C"/>
<path d="M10.625 8.5H23.375C23.6568 8.5 23.927 8.38806 24.1263 8.1888C24.3256 7.98954 24.4375 7.71929 24.4375 7.4375C24.4375 7.15571 24.3256 6.88546 24.1263 6.6862C23.927 6.48694 23.6568 6.375 23.375 6.375H10.625C10.3432 6.375 10.073 6.48694 9.8737 6.6862C9.67444 6.88546 9.5625 7.15571 9.5625 7.4375C9.5625 7.71929 9.67444 7.98954 9.8737 8.1888C10.073 8.38806 10.3432 8.5 10.625 8.5Z" fill="#FF914C"/>
<path d="M6.375 8.5C6.9618 8.5 7.4375 8.0243 7.4375 7.4375C7.4375 6.8507 6.9618 6.375 6.375 6.375C5.7882 6.375 5.3125 6.8507 5.3125 7.4375C5.3125 8.0243 5.7882 8.5 6.375 8.5Z" fill="#FF914C"/>
<path d="M27.625 8.5C28.2118 8.5 28.6875 8.0243 28.6875 7.4375C28.6875 6.8507 28.2118 6.375 27.625 6.375C27.0382 6.375 26.5625 6.8507 26.5625 7.4375C26.5625 8.0243 27.0382 8.5 27.625 8.5Z" fill="#FF914C"/>
<path d="M23.375 15.1406C22.6238 15.1388 21.8961 15.4029 21.3211 15.8863C20.7461 16.3697 20.3607 17.0411 20.2334 17.7814C20.1061 18.5218 20.2451 19.2833 20.6256 19.931C21.0062 20.5787 21.6038 21.0708 22.3125 21.3199V21.5156C22.3125 22.6428 21.8647 23.7238 21.0677 24.5208C20.2707 25.3179 19.1897 25.7656 18.0625 25.7656C16.9353 25.7656 15.8543 25.3179 15.0573 24.5208C14.2603 23.7238 13.8125 22.6428 13.8125 21.5156V21.4094C15.0118 21.1631 16.0895 20.5108 16.8637 19.5623C17.6379 18.6139 18.0614 17.4274 18.0625 16.2031V11.9531C18.0625 11.6713 17.9506 11.4011 17.7513 11.2018C17.552 11.0026 17.2818 10.8906 17 10.8906H14.875C14.5932 10.8906 14.323 11.0026 14.1237 11.2018C13.9244 11.4011 13.8125 11.6713 13.8125 11.9531C13.8125 12.2349 13.9244 12.5052 14.1237 12.7044C14.323 12.9037 14.5932 13.0156 14.875 13.0156H15.9375V16.2031C15.9375 17.0485 15.6017 17.8593 15.0039 18.457C14.4061 19.0548 13.5954 19.3906 12.75 19.3906C11.9046 19.3906 11.0939 19.0548 10.4961 18.457C9.89832 17.8593 9.5625 17.0485 9.5625 16.2031V13.0156H10.625C10.9068 13.0156 11.177 12.9037 11.3763 12.7044C11.5756 12.5052 11.6875 12.2349 11.6875 11.9531C11.6875 11.6713 11.5756 11.4011 11.3763 11.2018C11.177 11.0026 10.9068 10.8906 10.625 10.8906H8.5C8.21821 10.8906 7.94796 11.0026 7.7487 11.2018C7.54944 11.4011 7.4375 11.6713 7.4375 11.9531V16.2031C7.43865 17.4274 7.86205 18.6139 8.63629 19.5623C9.41052 20.5108 10.4882 21.1631 11.6875 21.4094V21.5156C11.6875 23.2064 12.3591 24.8279 13.5547 26.0234C14.7502 27.219 16.3717 27.8906 18.0625 27.8906C19.7533 27.8906 21.3748 27.219 22.5703 26.0234C23.7659 24.8279 24.4375 23.2064 24.4375 21.5156V21.3199C25.1462 21.0708 25.7438 20.5787 26.1244 19.931C26.5049 19.2833 26.6439 18.5218 26.5166 17.7814C26.3893 17.0411 26.0039 16.3697 25.4289 15.8863C24.8539 15.4029 24.1262 15.1388 23.375 15.1406ZM23.375 19.3906C23.1649 19.3906 22.9594 19.3283 22.7847 19.2116C22.61 19.0948 22.4738 18.9289 22.3934 18.7347C22.313 18.5406 22.2919 18.3269 22.3329 18.1208C22.3739 17.9147 22.4751 17.7254 22.6237 17.5768C22.7723 17.4282 22.9616 17.327 23.1677 17.286C23.3738 17.245 23.5875 17.2661 23.7816 17.3465C23.9757 17.4269 24.1417 17.5631 24.2584 17.7378C24.3752 17.9126 24.4375 18.118 24.4375 18.3281C24.4369 18.6097 24.3248 18.8797 24.1257 19.0788C23.9265 19.2779 23.6566 19.3901 23.375 19.3906Z" fill="#FF914C"/>
</g>
<defs>
<clipPath id="clip0_77_1902">
<rect width="34" height="34" fill="white"/>
</clipPath>
</defs>
</svg>
