<svg width="24" height="25" viewBox="0 0 24 25" fill="none" xmlns="http://www.w3.org/2000/svg">
<path d="M11.9961 11.997C12.1442 11.997 12.2554 11.997 12.3665 11.997C14.9356 11.997 17.5048 11.997 20.0739 11.997C20.1582 11.997 20.2427 11.9951 20.327 11.9978C21.1163 12.0242 21.6055 12.5067 21.607 13.3C21.6131 16.4411 21.6129 19.5821 21.607 22.7232C21.6055 23.5041 21.1253 23.9802 20.3476 24.0108C20.2915 24.013 20.2351 24.0118 20.1788 24.0118C13.9248 24.0118 7.67077 24.0122 1.41682 24.0099C1.23984 24.0099 1.05775 24.0035 0.886939 23.9628C0.401267 23.8472 0.0482164 23.4155 0.0081448 22.9151C0.00137848 22.8312 0.000325652 22.7466 0.000325652 22.6622C-5.02541e-05 16.3614 -0.00110228 10.0604 0.0046115 3.75956C0.00483704 3.5401 0.0322029 3.30313 0.117684 3.1048C0.329244 2.61364 0.744545 2.40366 1.26675 2.40336C4.42655 2.40148 7.58642 2.39659 10.7462 2.40667C11.5269 2.40915 11.9949 2.91294 11.9954 3.6934C11.9969 6.33752 11.996 8.98165 11.996 11.6258C11.9961 11.737 11.9961 11.8483 11.9961 11.997ZM2.40432 11.9812C4.80975 11.9812 7.18826 11.9812 9.57226 11.9812C9.57226 9.58122 9.57226 7.19707 9.57226 4.80954C7.17367 4.80954 4.79637 4.80954 2.40432 4.80954C2.40432 7.20316 2.40432 9.58092 2.40432 11.9812ZM19.1865 14.4285C16.7793 14.4285 14.396 14.4285 12.0205 14.4285C12.0205 16.8324 12.0205 19.2149 12.0205 21.5941C14.4212 21.5941 16.7974 21.5941 19.1865 21.5941C19.1865 19.2008 19.1865 16.8244 19.1865 14.4285ZM9.57339 21.595C9.57339 19.1962 9.57339 16.8136 9.57339 14.4217C7.17691 14.4217 4.80058 14.4217 2.41056 14.4217C2.41056 16.8194 2.41056 19.2028 2.41056 21.595C4.80742 21.595 7.18322 21.595 9.57339 21.595Z" fill="#008479"/>
<path d="M23.9995 5.44093C23.9995 6.78216 24.0008 8.1234 23.9991 9.46455C23.998 10.333 23.5263 10.805 22.6597 10.8053C19.9585 10.8062 17.2573 10.8061 14.5561 10.8053C13.6966 10.8051 13.2009 10.3332 13.1983 9.47117C13.1902 6.76066 13.1909 4.05007 13.1978 1.33949C13.2 0.476406 13.6876 0.00276265 14.5492 0.00193565C17.2504 -0.000620512 19.9516 -0.000695161 22.6527 0.00201137C23.5397 0.00291354 23.9985 0.470089 23.9993 1.36099C24.0004 2.72102 23.9995 4.08097 23.9995 5.44093ZM15.6178 2.41886C15.6178 4.41748 15.6178 6.39911 15.6178 8.37615C17.6212 8.37615 19.6044 8.37615 21.5921 8.37615C21.5921 6.38272 21.5921 4.40854 21.5921 2.41886C19.5911 2.41886 17.6082 2.41886 15.6178 2.41886Z" fill="#008479"/>
</svg>
