<svg width="32" height="32" viewBox="0 0 32 32" fill="none" xmlns="http://www.w3.org/2000/svg">
<path d="M31.4345 8.42103H31.406C30.858 8.42453 30.773 7.94853 30.7635 7.72753V4.27103C30.7635 3.90203 30.4645 3.60303 30.0965 3.60303H20.214C17.7345 3.60303 16.8095 4.52203 16.58 4.81053L16.517 4.89803L16.5165 4.89953L16.321 5.16753C16.0585 5.52803 15.8295 5.37453 15.7195 5.25653L15.3455 4.79003L15.1605 4.56703C14.8495 4.24053 14.039 3.60303 12.4325 3.60303H1.90401C1.53501 3.60303 1.23601 3.90203 1.23601 4.27103V7.68353C1.23601 8.28103 0.911513 8.40103 0.712513 8.42103H0.564513C0.402513 8.43103 0.0255127 8.52503 0.0255127 9.21853V25.483C0.0255127 25.882 0.349013 26.205 0.748013 26.205H10.357C13.4225 26.205 14.7585 27.361 15.159 27.8045L15.3875 28.0875C15.3875 28.0875 16.001 28.781 16.647 28.0875L16.781 27.9305L16.783 27.9295L16.954 27.7295C16.959 27.7235 17 27.6775 17.0595 27.6165C17.571 27.119 18.8495 26.205 21.3495 26.205H31.252C31.6515 26.205 31.9745 25.882 31.9745 25.483V9.06103C31.9745 8.47303 31.549 8.42403 31.4345 8.42103ZM29.2755 22.931C29.2755 23.2515 29.008 23.51 28.675 23.51H20.5275C17.628 23.51 16.5755 24.82 16.5755 24.82L16.442 24.999L16.3795 25.0855C16.103 25.461 15.696 25.0885 15.694 25.0865L15.5065 24.852C15.3675 24.685 14.3025 23.5095 11.725 23.5095H3.32501C2.99351 23.5095 2.72551 23.2505 2.72551 22.9305V5.59953C2.72551 5.27953 2.99351 5.02053 3.32501 5.02053H9.84651C14.6975 5.02053 15.157 7.77603 15.1885 8.57653V20.6295C15.1885 21.5055 15.606 21.67 15.8415 21.694H16.192C16.432 21.67 16.8135 21.5275 16.8135 20.844V8.42103H16.8095C16.8455 7.41853 17.2365 5.02003 20.154 5.02003H28.675C29.008 5.02003 29.2755 5.27903 29.2755 5.59903V22.931Z" fill="#008479"/>
</svg>
