<svg width="35" height="41" viewBox="0 0 35 41" fill="none" xmlns="http://www.w3.org/2000/svg">
<path fill-rule="evenodd" clip-rule="evenodd" d="M30.5851 6.61663C31.0611 6.80795 31.1137 6.90667 31.144 7.39581C31.144 16.4608 31.1724 25.5258 31.144 34.5903C31.1129 37.9065 28.3115 40.9544 24.8274 40.988C19.8706 41.004 14.9134 41.004 9.95665 40.988C6.66385 40.9565 3.67279 38.0618 3.64003 34.5903V7.39581C3.64003 7.39581 4.01498 6.14675 4.88256 6.7043C5.11109 6.85096 5.24052 7.1156 5.25791 7.39581C5.25791 16.4678 5.17338 25.5397 5.25832 34.6112C5.29674 37.0717 7.37734 39.308 9.93643 39.349C14.9066 39.3969 19.8775 39.3969 24.8476 39.349C27.304 39.3096 29.5181 37.1532 29.5262 34.5477V7.39581C29.5585 6.87513 30.0293 6.47202 30.5851 6.61663ZM17.4826 8.42529C17.881 8.4937 18.1779 8.82061 18.201 9.23928V35.4576C18.1589 36.2163 17.8297 36.2323 17.4826 36.272C17.03 36.3236 16.609 35.9283 16.5831 35.4576V9.23928C16.609 8.77432 16.9795 8.39661 17.4826 8.42529ZM23.9542 8.42529C24.3526 8.4937 24.6495 8.82061 24.6725 9.23928V35.4576C24.6357 36.1221 23.7778 36.5297 23.2916 36.0373C23.1505 35.8943 23.0732 35.7968 23.0546 35.4576V9.23928C23.0805 8.77432 23.451 8.39661 23.9542 8.42529ZM11.0111 8.42529C11.4095 8.4937 11.7064 8.82061 11.7294 9.23928V35.4576C11.6922 36.1286 10.817 36.5117 10.3486 36.0373C10.2074 35.8943 10.1302 35.7968 10.1116 35.4576V9.23928C10.1374 8.77432 10.5079 8.39661 11.0111 8.42529ZM34.1776 5.3475H0.808734C0.774759 5.34546 0.741188 5.34341 0.707213 5.34136C0.0196123 5.20822 0.0228485 4.92801 0.00141153 4.5798C-0.0260925 4.13777 0.352087 3.73795 0.808734 3.70886H10.1116L10.112 1.41926C10.1395 0.688019 10.7539 0.0509957 11.4912 0.0223194C15.4146 -0.0276593 19.3384 0.0219099 23.2621 0.0219099C24.0055 0.0313322 24.6628 0.681054 24.6725 1.45081V3.70886H34.1776C34.1776 3.70886 35.4877 4.20988 34.8009 5.0505C34.6504 5.23485 34.4207 5.33235 34.1776 5.3475ZM11.7294 3.70886H23.0546V1.66055H11.7294V3.70886Z" fill="#B50000"/>
</svg>
