<svg width="60" height="60" viewBox="0 0 60 60" fill="none" xmlns="http://www.w3.org/2000/svg">
<path d="M29.5312 0.46875C13.2656 0.46875 0 13.7344 0 30C0 46.2656 13.2656 59.5312 29.5312 59.5312C45.7969 59.5312 59.0625 46.2656 59.0625 30C59.0625 13.7344 45.7969 0.46875 29.5312 0.46875ZM29.5312 55.7812C15.3281 55.7812 3.75 44.2031 3.75 30C3.75 15.7969 15.3281 4.21875 29.5312 4.21875C43.7344 4.21875 55.3125 15.7969 55.3125 30C55.3125 44.2031 43.7344 55.7812 29.5312 55.7812Z" fill="#B50000"/>
<path d="M31.4062 25.5469H27.6562V44.2969H31.4062V25.5469Z" fill="#B50000"/>
<path d="M31.4062 16.6406H27.6562V20.3906H31.4062V16.6406Z" fill="#B50000"/>
</svg>
