<svg width="24" height="28" viewBox="0 0 24 28" fill="none" xmlns="http://www.w3.org/2000/svg">
<path d="M24 18.0028H21.5001V11.2368C21.5001 7.75133 19.2049 4.79218 16.0467 3.79026C15.9871 1.69034 14.2615 0 12.1473 0H12.0811C9.99034 0 8.27866 1.6531 8.18359 3.7208C4.90717 4.64908 2.49987 7.66706 2.49987 11.2368V18.0028H0V24.4189H8.07479C8.37666 26.3137 10.0216 27.7665 12 27.7665C13.9783 27.7665 15.6233 26.3137 15.9251 24.4189H23.9999V18.0028H24ZM12.0811 1.25533H12.1473C13.4704 1.25533 14.5698 2.23106 14.7638 3.5007C14.4125 3.45216 14.054 3.42647 13.6896 3.42647H10.3102C10.0263 3.42647 9.74597 3.44212 9.46988 3.47183C9.67609 2.21641 10.7682 1.25533 12.0811 1.25533ZM12 26.5111C10.7163 26.5111 9.63818 25.6169 9.35397 24.4189H14.6459C14.3617 25.6169 13.2837 26.5111 12 26.5111ZM22.7447 23.1635H1.25533V19.258H3.75528V11.2367C3.75528 7.62229 6.69585 4.68171 10.3103 4.68171H13.6897C17.3041 4.68171 20.2447 7.62229 20.2447 11.2367V19.258H22.7447V23.1635Z" fill="white"/>
</svg>
