<svg width="24" height="23" viewBox="0 0 24 23" fill="none" xmlns="http://www.w3.org/2000/svg">
<path fill-rule="evenodd" clip-rule="evenodd" d="M0 19.5449H2.875V0.306641C2.875 0.138672 3.01367 0 3.18164 0H12.9199C13.0879 0 13.2266 0.138672 13.2266 0.306641V7.51953H21.8438C22.0117 7.51953 22.1504 7.6582 22.1504 7.82617V19.543H24V22.0801H0V19.5449ZM5.33594 2.89453H7.32812C7.38867 2.89453 7.43945 2.94531 7.43945 3.00586V5.41992C7.43945 5.48047 7.38867 5.53125 7.32812 5.53125H5.33594C5.27539 5.53125 5.22461 5.48047 5.22461 5.41992V3.00586C5.22461 2.94531 5.27539 2.89453 5.33594 2.89453ZM8.71094 14.9023H10.7031C10.7637 14.9023 10.8145 14.9531 10.8145 15.0137V17.4277C10.8145 17.4883 10.7637 17.5391 10.7031 17.5391H8.71094C8.65039 17.5391 8.59961 17.4883 8.59961 17.4277V15.0137C8.59961 14.9512 8.65039 14.9023 8.71094 14.9023ZM5.33594 14.9023H7.32812C7.38867 14.9023 7.43945 14.9531 7.43945 15.0137V17.4277C7.43945 17.4883 7.38867 17.5391 7.32812 17.5391H5.33594C5.27539 17.5391 5.22461 17.4883 5.22461 17.4277V15.0137C5.22461 14.9512 5.27539 14.9023 5.33594 14.9023ZM8.71094 10.8984H10.7031C10.7637 10.8984 10.8145 10.9492 10.8145 11.0098V13.4238C10.8145 13.4844 10.7637 13.5352 10.7031 13.5352H8.71094C8.65039 13.5352 8.59961 13.4844 8.59961 13.4238V11.0117C8.59961 10.9492 8.65039 10.8984 8.71094 10.8984ZM5.33594 10.8984H7.32812C7.38867 10.8984 7.43945 10.9492 7.43945 11.0098V13.4238C7.43945 13.4844 7.38867 13.5352 7.32812 13.5352H5.33594C5.27539 13.5352 5.22461 13.4844 5.22461 13.4238V11.0117C5.22461 10.9492 5.27539 10.8984 5.33594 10.8984ZM8.71094 6.89648H10.7031C10.7637 6.89648 10.8145 6.94727 10.8145 7.00781V9.42188C10.8145 9.48242 10.7637 9.5332 10.7031 9.5332H8.71094C8.65039 9.5332 8.59961 9.48242 8.59961 9.42188V7.00781C8.59961 6.94727 8.65039 6.89648 8.71094 6.89648ZM5.33594 6.89648H7.32812C7.38867 6.89648 7.43945 6.94727 7.43945 7.00781V9.42188C7.43945 9.48242 7.38867 9.5332 7.32812 9.5332H5.33594C5.27539 9.5332 5.22461 9.48242 5.22461 9.42188V7.00781C5.22461 6.94727 5.27539 6.89648 5.33594 6.89648ZM8.71094 2.89453H10.7031C10.7637 2.89453 10.8145 2.94531 10.8145 3.00586V5.41992C10.8145 5.48047 10.7637 5.53125 10.7031 5.53125H8.71094C8.65039 5.53125 8.59961 5.48047 8.59961 5.41992V3.00586C8.59961 2.94531 8.65039 2.89453 8.71094 2.89453ZM4.52539 1.42969H11.541C11.6621 1.42969 11.7617 1.54883 11.7617 1.69336V18.4648C11.7617 18.6094 11.6621 18.7285 11.541 18.7285H4.52539C4.4043 18.7285 4.30469 18.6094 4.30469 18.4648V1.69336C4.30469 1.54883 4.4043 1.42969 4.52539 1.42969ZM14.1816 10.4355H16.1738C16.2344 10.4355 16.2852 10.4863 16.2852 10.5469V12.9609C16.2852 13.0215 16.2344 13.0723 16.1738 13.0723H14.1816C14.1211 13.0723 14.0703 13.0215 14.0703 12.9609V10.5469C14.0703 10.4863 14.1211 10.4355 14.1816 10.4355ZM17.5566 14.9023H19.5488C19.6094 14.9023 19.6602 14.9531 19.6602 15.0137V17.4277C19.6602 17.4883 19.6094 17.5391 19.5488 17.5391H17.5566C17.4961 17.5391 17.4453 17.4883 17.4453 17.4277V15.0137C17.4453 14.9512 17.4961 14.9023 17.5566 14.9023ZM14.1816 14.9023H16.1738C16.2344 14.9023 16.2852 14.9531 16.2852 15.0137V17.4277C16.2852 17.4883 16.2344 17.5391 16.1738 17.5391H14.1816C14.1211 17.5391 14.0703 17.4883 14.0703 17.4277V15.0137C14.0703 14.9512 14.1211 14.9023 14.1816 14.9023ZM17.5566 10.4355H19.5488C19.6094 10.4355 19.6602 10.4863 19.6602 10.5469V12.9609C19.6602 13.0215 19.6094 13.0723 19.5488 13.0723H17.5566C17.4961 13.0723 17.4453 13.0215 17.4453 12.9609V10.5469C17.4453 10.4863 17.4961 10.4355 17.5566 10.4355ZM13.4492 8.94922H20.4648C20.5859 8.94922 20.6855 9.06836 20.6855 9.21289V18.4648C20.6855 18.6094 20.5859 18.7285 20.4648 18.7285H13.4492C13.3281 18.7285 13.2285 18.6094 13.2285 18.4648V9.21289C13.2285 9.06836 13.3281 8.94922 13.4492 8.94922Z" fill="white"/>
</svg>
