<svg width="14" height="16" viewBox="0 0 14 16" fill="none" xmlns="http://www.w3.org/2000/svg">
<path d="M13 16H1C0.734784 16 0.48043 15.8946 0.292893 15.7071C0.105357 15.5196 0 15.2652 0 15C0 14.7348 0.105357 14.4804 0.292893 14.2929C0.48043 14.1054 0.734784 14 1 14H13C13.2652 14 13.5196 14.1054 13.7071 14.2929C13.8946 14.4804 14 14.7348 14 15C14 15.2652 13.8946 15.5196 13.7071 15.7071C13.5196 15.8946 13.2652 16 13 16Z" fill="#008479"/>
<path d="M10.9201 7.62C10.8451 7.43738 10.7177 7.28105 10.554 7.17072C10.3903 7.06039 10.1976 7.00099 10.0001 7H8.00014V1C8.00014 0.734784 7.89478 0.48043 7.70725 0.292893C7.51971 0.105357 7.26536 0 7.00014 0C6.73492 0 6.48057 0.105357 6.29303 0.292893C6.1055 0.48043 6.00014 0.734784 6.00014 1V7H4.00014C3.80271 7.00099 3.61 7.06039 3.44628 7.17072C3.28256 7.28105 3.15516 7.43738 3.08014 7.62C3.00356 7.80211 2.98264 8.00282 3.02001 8.19681C3.05739 8.3908 3.15138 8.56938 3.29014 8.71L6.29014 11.71C6.38524 11.801 6.49739 11.8724 6.62014 11.92C6.73984 11.9729 6.86927 12.0002 7.00014 12.0002C7.13101 12.0002 7.26044 11.9729 7.38014 11.92C7.50289 11.8724 7.61504 11.801 7.71014 11.71L10.7101 8.71C10.8489 8.56938 10.9429 8.3908 10.9803 8.19681C11.0176 8.00282 10.9967 7.80211 10.9201 7.62Z" fill="#008479"/>
</svg>
