<svg width="60" height="60" viewBox="0 0 60 60" fill="none" xmlns="http://www.w3.org/2000/svg">
<path d="M29.5312 0C13.2656 0 0 13.2656 0 29.5312C0 45.7969 13.2656 59.0625 29.5312 59.0625C45.7969 59.0625 59.0625 45.7969 59.0625 29.5312C59.0625 13.2656 45.7969 0 29.5312 0ZM29.5312 55.3125C15.3281 55.3125 3.75 43.7344 3.75 29.5312C3.75 15.3281 15.3281 3.75 29.5312 3.75C43.7344 3.75 55.3125 15.3281 55.3125 29.5312C55.3125 43.7344 43.7344 55.3125 29.5312 55.3125Z" fill="#DCD29D"/>
<path d="M31.4062 25.0781H27.6562V43.8281H31.4062V25.0781Z" fill="#DCD29D"/>
<path d="M31.4062 16.1719H27.6562V19.9219H31.4062V16.1719Z" fill="#DCD29D"/>
</svg>
