<svg width="20" height="20" viewBox="0 0 20 20" fill="none" xmlns="http://www.w3.org/2000/svg">
<path d="M16.8404 0L20.0003 3.15992L17.5914 5.56989L14.4314 2.40997L16.8404 0ZM5.2666 14.7337H8.42653L16.102 7.05822L12.9421 3.89829L5.2666 11.5738V14.7337Z" fill="#008479"/>
<path d="M16.8529 17.8935H5.43296C5.40558 17.8935 5.37714 17.904 5.34975 17.904C5.31499 17.904 5.28023 17.8945 5.24442 17.8935H2.10662V3.14714H9.31862L11.4252 1.04053H2.10662C0.944817 1.04053 0 1.98429 0 3.14714V17.8935C0 19.0563 0.944817 20.0001 2.10662 20.0001H16.8529C17.4116 20.0001 17.9475 19.7781 18.3425 19.3831C18.7376 18.988 18.9595 18.4522 18.9595 17.8935V8.76338L16.8529 10.87V17.8935Z" fill="#008479"/>
</svg>
