<svg width="33" height="32" viewBox="0 0 33 32" fill="none" xmlns="http://www.w3.org/2000/svg">
<path d="M16.7207 31.2582C16.9478 30.5353 17.1714 29.825 17.4152 29.0497C21.5624 29.0497 25.8193 29.0497 30.102 29.0497C30.102 22.3348 30.102 15.657 30.102 8.95746C21.1955 8.95746 12.2898 8.95746 3.35753 8.95746C3.35753 10.2417 3.35753 11.5162 3.35753 12.8172C2.60846 12.8172 1.88384 12.8172 1.1145 12.8172C1.1145 12.697 1.1145 12.5732 1.1145 12.4502C1.1145 9.4734 1.1145 6.49662 1.1152 3.52053C1.1152 2.66553 1.54494 2.23838 2.40372 2.23838C3.63354 2.23768 4.86336 2.23838 6.13651 2.23838C6.13651 2.5369 6.13651 2.81164 6.13651 3.08639C6.13651 3.73726 6.12743 4.38882 6.1393 5.03969C6.15118 5.6528 6.61307 6.13169 7.22099 6.13938C8.35997 6.15336 9.49895 6.15546 10.6379 6.13938C11.257 6.13029 11.7077 5.63882 11.7133 4.99774C11.721 4.0931 11.7154 3.18776 11.7154 2.26005C15.0667 2.26005 18.3942 2.26005 21.7587 2.26005C21.7587 3.10247 21.7587 3.9365 21.7587 4.76983C21.7587 5.74298 22.1598 6.14497 23.1318 6.14497C24.0731 6.14497 25.0143 6.14497 25.9562 6.14497C26.9373 6.14497 27.337 5.74858 27.3384 4.77822C27.3391 3.96447 27.3419 3.15071 27.3447 2.33695C27.3447 2.31668 27.36 2.2957 27.3775 2.25026C27.4572 2.24677 27.5466 2.23838 27.636 2.23838C28.81 2.23768 29.9839 2.23488 31.1571 2.23908C31.8929 2.24187 32.3583 2.70188 32.3583 3.43524C32.3597 12.3069 32.3597 21.1785 32.3583 30.0501C32.3583 30.7807 31.909 31.261 31.2081 31.2617C26.3964 31.2659 21.5855 31.2638 16.7738 31.2638C16.7388 31.2631 16.7046 31.2561 16.7207 31.2582Z" fill="#FF914C"/>
<path d="M2.35763 16.7504C1.96073 16.7504 1.56733 16.7546 1.17323 16.7497C0.496823 16.7414 -0.00139459 16.2632 2.93275e-06 15.6305C0.00209922 14.9943 0.496125 14.5245 1.17882 14.5189C1.8643 14.514 2.54979 14.514 3.23527 14.5182C3.94731 14.5224 4.36447 14.8894 4.4644 15.5864C4.65236 16.8952 4.84033 18.2032 5.03249 19.5378C8.82398 19.5378 12.5966 19.5378 16.4188 19.5378C16.2868 20.2075 16.1631 20.8402 16.0373 21.4729C15.9241 22.042 15.8123 22.6117 15.6928 23.1801C15.5153 24.0232 14.8725 24.5622 14.0137 24.5636C11.0041 24.5685 7.99455 24.5685 4.98498 24.5636C4.07589 24.5622 3.40368 23.9512 3.2765 23.0473C2.9949 21.0464 2.7098 19.0456 2.42401 17.0455C2.41213 16.9546 2.38418 16.8658 2.35763 16.7504Z" fill="#FF914C"/>
<path d="M10.0544 17.8476C10.0495 17.7784 10.0418 17.7232 10.0425 17.668C10.0453 15.7385 10.0467 13.8089 10.0551 11.8794C10.0572 11.3705 10.3018 11.1684 10.8049 11.2118C11.8935 11.3047 12.9354 11.562 13.8815 12.1248C15.4845 13.0784 16.2909 14.5549 16.5948 16.3446C16.6773 16.8326 16.7073 17.3296 16.7646 17.8476C14.5062 17.8476 12.303 17.8476 10.0544 17.8476Z" fill="#FF914C"/>
<path d="M15.6201 29.0339C15.6187 30.2685 14.6132 31.2675 13.3778 31.2626C12.1466 31.2577 11.1515 30.2475 11.1592 29.0101C11.1662 27.7958 12.1689 26.7995 13.3841 26.7988C14.6202 26.7981 15.6215 27.7985 15.6201 29.0339Z" fill="#FF914C"/>
<path d="M5.57976 31.2631C4.34574 31.2624 3.34442 30.2578 3.34791 29.0239C3.3507 27.79 4.35832 26.7924 5.59443 26.7994C6.81238 26.8063 7.80392 27.8005 7.80951 29.0204C7.8151 30.2536 6.81168 31.2638 5.57976 31.2631Z" fill="#FF914C"/>
<path d="M10.0418 2.26161C10.0418 2.77336 10.0453 3.2851 10.0411 3.79614C10.0369 4.26944 9.8364 4.46449 9.35496 4.46938C9.05309 4.47218 8.75053 4.47497 8.44866 4.46868C8.0308 4.46029 7.81558 4.25965 7.81349 3.85207C7.8072 2.77056 7.8065 1.68974 7.81418 0.608231C7.81698 0.220229 8.0336 0.0153912 8.4277 0.00630282C8.7645 -0.00138732 9.102 -0.00278553 9.43881 0.00630282C9.82662 0.0167894 10.0349 0.227919 10.0404 0.621514C10.0474 1.16891 10.0418 1.71491 10.0418 2.26161Z" fill="#FF914C"/>
<path d="M23.4324 2.20302C23.4324 1.69128 23.4289 1.17953 23.4338 0.668489C23.438 0.212673 23.6392 0.0127293 24.0948 0.00643741C24.4204 0.00224279 24.7461 -0.00195192 25.071 0.00853464C25.4427 0.0204194 25.6579 0.227354 25.6607 0.598578C25.6691 1.69128 25.6691 2.78468 25.6607 3.87738C25.6579 4.2479 25.4413 4.45693 25.0717 4.46812C24.7349 4.47861 24.3974 4.47651 24.0606 4.46952C23.6483 4.46043 23.4401 4.25419 23.4345 3.84242C23.4268 3.29572 23.4324 2.74972 23.4324 2.20302Z" fill="#FF914C"/>
<path d="M20.6499 13.4017C20.9867 13.4017 21.3242 13.3975 21.661 13.4024C22.0991 13.4086 22.3059 13.6086 22.3143 14.0371C22.3206 14.3622 22.322 14.6887 22.3136 15.0138C22.3038 15.4095 22.1012 15.6262 21.7141 15.6311C20.9936 15.6402 20.2732 15.6409 19.5528 15.6304C19.1852 15.6248 18.9805 15.4067 18.9707 15.0327C18.9616 14.6838 18.9602 14.335 18.9707 13.9861C18.9826 13.6191 19.195 13.4128 19.5682 13.4031C19.9294 13.3947 20.29 13.4017 20.6499 13.4017Z" fill="#FF914C"/>
<path d="M26.2217 15.6335C25.8611 15.6335 25.5012 15.6419 25.1407 15.6314C24.7689 15.6209 24.5614 15.4126 24.5509 15.0414C24.5404 14.6932 24.5404 14.3437 24.5502 13.9948C24.5607 13.625 24.7703 13.4097 25.14 13.4048C25.8604 13.3957 26.5808 13.3957 27.3012 13.4048C27.6723 13.4097 27.8805 13.6229 27.8917 13.9941C27.9022 14.3423 27.9022 14.6918 27.8917 15.0407C27.8805 15.4119 27.6723 15.6209 27.3019 15.6314C26.9421 15.6419 26.5815 15.6335 26.2217 15.6335Z" fill="#FF914C"/>
<path d="M20.6212 20.0998C20.2725 20.0998 19.9239 20.1075 19.5752 20.0977C19.186 20.0872 18.9791 19.8775 18.9701 19.4853C18.9624 19.1483 18.9617 18.8107 18.9707 18.4737C18.9805 18.0836 19.1888 17.8732 19.5822 17.869C20.2907 17.8613 21 17.8613 21.7085 17.8697C22.0984 17.8746 22.3045 18.0871 22.3136 18.4807C22.322 18.8176 22.3227 19.1553 22.3136 19.4923C22.3031 19.8817 22.0942 20.0886 21.7022 20.0977C21.3417 20.1061 20.9818 20.0991 20.6212 20.0998Z" fill="#FF914C"/>
<path d="M26.2288 17.8675C26.5656 17.8675 26.9031 17.8633 27.2399 17.8682C27.6781 17.8745 27.8849 18.0744 27.894 18.5023C27.9003 18.8273 27.901 19.1538 27.8933 19.4789C27.8842 19.8739 27.6802 20.0913 27.2938 20.0962C26.5733 20.1053 25.8529 20.106 25.1325 20.0955C24.7656 20.0899 24.5595 19.8704 24.5497 19.4978C24.5406 19.1489 24.5399 18.8001 24.5504 18.4512C24.5616 18.0835 24.7733 17.878 25.1479 17.8689C25.5084 17.8605 25.869 17.8675 26.2288 17.8675Z" fill="#FF914C"/>
<path d="M20.6192 24.5653C20.2823 24.5653 19.9448 24.5702 19.608 24.5646C19.1916 24.5576 18.9799 24.3548 18.9701 23.9494C18.9617 23.6124 18.9617 23.2747 18.9708 22.9378C18.9813 22.5491 19.1902 22.3393 19.5836 22.3351C20.2921 22.3274 21.0014 22.3267 21.7099 22.3351C22.097 22.34 22.3039 22.5547 22.3137 22.9482C22.322 23.2852 22.322 23.6229 22.313 23.9599C22.3025 24.3486 22.0921 24.5548 21.6994 24.5632C21.3403 24.5716 20.9797 24.5653 20.6192 24.5653Z" fill="#FF914C"/>
</svg>
