<svg width="24" height="23" viewBox="0 0 24 23" fill="none" xmlns="http://www.w3.org/2000/svg">
<path d="M9.88519 4.46471C11.1181 4.46471 12.1175 3.46525 12.1175 2.23235C12.1175 0.999459 11.1181 0 9.88519 0C8.65229 0 7.65283 0.999459 7.65283 2.23235C7.65283 3.46525 8.65229 4.46471 9.88519 4.46471Z" fill="white"/>
<path d="M23.9371 18.6228L21.8397 12.7299C21.6879 12.3025 21.2886 12.0101 20.8332 12.0045L17.0264 11.9258C17.2569 12.2463 17.3919 12.6343 17.3919 13.0504C17.3919 13.1741 17.3806 13.2978 17.3581 13.4159H19.3431L22.0646 20.4897L23.3017 20.0117C23.8528 19.7981 24.1339 19.1851 23.9371 18.6228Z" fill="white"/>
<path d="M11.1505 6.83203C11.0943 6.83203 11.0324 6.83765 10.9762 6.84328H10.9706C10.9706 6.84328 10.9706 6.84328 10.965 6.84328C10.2058 6.95012 9.70539 7.69798 9.89657 8.44585L11.1786 13.4166H16.543C16.5824 13.3042 16.6049 13.1748 16.6049 13.0511C16.6049 12.427 16.1044 11.9097 15.4803 11.8984H15.4746L13.8215 11.8647L12.3707 7.70361V7.69798C12.1852 7.16941 11.6903 6.83203 11.1505 6.83203Z" fill="white"/>
<path d="M21.3227 20.7772L18.7979 14.2038H17.0098H10.5714H10.369L7.71488 7.30432L6.10668 3.12076C5.77492 2.25481 4.80213 1.82746 3.94181 2.15922C3.07586 2.49098 2.6485 3.46377 2.98026 4.3241L3.48072 5.6174L5.48815 10.8412L6.77583 14.1982L8.06351 17.5495H16.4981L18.0444 21.57L18.1963 21.9693C18.4887 22.7284 19.3434 23.1107 20.1081 22.8183L20.4792 22.6778C21.2383 22.391 21.6151 21.5363 21.3227 20.7772Z" fill="white"/>
<path d="M7.51803 18.3426L6.03916 14.4852L4.74586 11.1339L2.62597 5.62891H0V21.5815H17.1953L15.9526 18.3483H7.51803V18.3426ZM3.69997 19.2986H1.96807V16.1047H3.69997V19.2986ZM3.69997 14.2041H1.96807V11.0102H3.69997V14.2041ZM14.0858 19.6922H8.06909C7.84979 19.6922 7.67547 19.5179 7.67547 19.2986C7.67547 19.0793 7.84979 18.9049 8.06909 18.9049H14.0858C14.3051 18.9049 14.4794 19.0793 14.4794 19.2986C14.4794 19.5122 14.3051 19.6922 14.0858 19.6922Z" fill="white"/>
</svg>
