<svg width="18" height="20" viewBox="0 0 18 20" fill="none" xmlns="http://www.w3.org/2000/svg">
<path d="M4.37317 11.25C4.02799 11.25 3.74817 11.5299 3.74817 11.875V14.375C3.74817 14.7201 4.02799 15 4.37317 15C4.71834 15 4.99817 14.7201 4.99817 14.375V14.167H5.41467C6.22018 14.167 6.87317 13.514 6.87317 12.7085C6.87317 11.903 6.22018 11.25 5.41467 11.25H4.37317ZM5.41467 12.917H4.99817V12.5H5.41467C5.52982 12.5 5.62317 12.5934 5.62317 12.7085C5.62317 12.8236 5.52982 12.917 5.41467 12.917Z" fill="#008479"/>
<path d="M11.249 11.8743C11.2495 11.5294 11.5292 11.25 11.874 11.25H13.1219C13.4672 11.25 13.7469 11.5299 13.7469 11.875C13.7469 12.2201 13.4672 12.5 13.1219 12.5H12.4983L12.4978 12.9181H13.1219C13.4672 12.9181 13.7469 13.1979 13.7469 13.5431C13.7469 13.8883 13.4672 14.1681 13.1219 14.1681H12.4985L12.499 14.3734C12.4999 14.7186 12.2208 14.9991 11.8757 15C11.5304 15.0009 11.2499 14.7217 11.249 14.3766L11.2469 13.5424L11.249 11.8743Z" fill="#008479"/>
<path d="M8.12134 11.25C7.77615 11.25 7.49634 11.5299 7.49634 11.875V14.375C7.49634 14.7201 7.77615 15 8.12134 15H8.74814C9.78366 15 10.6232 14.1605 10.6232 13.125C10.6232 12.0895 9.78366 11.25 8.74814 11.25H8.12134ZM8.74634 13.75V12.5H8.74814C9.09329 12.5 9.37316 12.7799 9.37316 13.125C9.37316 13.4701 9.09329 13.75 8.74814 13.75H8.74634Z" fill="#008479"/>
<path d="M8.74817 5.625V0H3.12317C2.08764 0 1.24817 0.839463 1.24817 1.875V8.85215C0.520887 9.11006 0 9.80411 0 10.6198V15.6237C0 16.4395 0.520887 17.1335 1.24817 17.3915V18.125C1.24817 19.1605 2.08764 20 3.12317 20H14.3732C15.4087 20 16.2482 19.1605 16.2482 18.125V17.3916C16.9757 17.1337 17.4967 16.4396 17.4967 15.6237V10.6198C17.4967 9.80399 16.9757 9.10986 16.2482 8.85204V7.5H10.6232C9.58768 7.5 8.74817 6.66054 8.74817 5.625ZM1.875 9.99481H15.6217C15.9668 9.99481 16.2467 10.2746 16.2467 10.6198V15.6237C16.2467 15.969 15.9668 16.2487 15.6217 16.2487H1.87501C1.52982 16.2487 1.25 15.969 1.25 15.6237V10.6198C1.25 10.2746 1.52982 9.99481 1.875 9.99481Z" fill="#008479"/>
<path d="M9.99817 5.625V0.3125L15.9357 6.25H10.6232C10.278 6.25 9.99817 5.97017 9.99817 5.625Z" fill="#008479"/>
</svg>
