<svg width="24" height="24" viewBox="0 0 24 24" fill="none" xmlns="http://www.w3.org/2000/svg">
<path d="M3.86869 20.2675H4.9285V20.4789C4.9285 22.4207 6.66402 24 8.79718 24H10.513H18.7016H19.4377H20.1306C22.2644 24 24 22.4207 24 20.4789V7.25376C24 5.31246 22.2644 3.73257 20.1306 3.73257H19.0709V3.52125C19.0709 1.57922 17.3359 0 15.2021 0H13.7731H5.58453H3.86869C1.73552 0 0 1.57928 0 3.52125V16.7462C0 18.6875 1.73552 20.2675 3.86869 20.2675ZM20.1306 4.88526C21.5682 4.88526 22.7332 5.9457 22.7332 7.25376V20.4789C22.7332 21.7869 21.5682 22.8474 20.1306 22.8474H19.4378H18.7016H10.5131H8.79725C7.36022 22.8474 6.19525 21.7869 6.19525 20.4789V20.2675V19.1148V7.25376C6.19525 5.94563 7.36022 4.88526 8.79725 4.88526H10.5131H17.8048H18.7016H19.0708H20.1306ZM1.26602 3.52125C1.26602 2.21313 2.43098 1.15269 3.86869 1.15269H5.58453H13.7731H15.2021C16.6398 1.15269 17.8048 2.21313 17.8048 3.52125V3.73257H10.5131H8.79725C6.66408 3.73257 4.92856 5.31246 4.92856 7.25376V19.1148H3.86869C2.43098 19.1148 1.26602 18.0537 1.26602 16.7462V3.52125Z" fill="white"/>
<path d="M8.49992 8.3335C8.22365 8.3335 8 8.55723 8 8.83353C8 9.10976 8.22365 9.3335 8.49992 9.3335H18.5C18.7763 9.3335 19 9.10976 19 8.83353C19 8.55723 18.7763 8.3335 18.5 8.3335H8.49992Z" fill="white"/>
<path d="M10 12.1668C10 12.4429 10.2235 12.6665 10.4988 12.6665H19.8345C20.1097 12.6665 20.3333 12.4429 20.3333 12.1668C20.3333 11.8907 20.1097 11.6665 19.8345 11.6665H10.4988C10.2235 11.6665 10 11.8907 10 12.1668Z" fill="white"/>
<path d="M17.6667 15.8331C17.6667 15.557 17.4455 15.3335 17.1726 15.3335H8.494C8.22101 15.3335 8 15.557 8 15.8331C8 16.1091 8.22101 16.3335 8.494 16.3335H17.1726C17.4455 16.3335 17.6667 16.1091 17.6667 15.8331Z" fill="white"/>
<path d="M19.8271 18.6665H11.5055C11.2262 18.6665 11 18.8903 11 19.1666C11 19.4428 11.2262 19.6665 11.5055 19.6665H19.8271C20.1064 19.6665 20.3333 19.4428 20.3333 19.1666C20.3333 18.8903 20.1064 18.6665 19.8271 18.6665Z" fill="white"/>
</svg>
