<svg width="21" height="24" viewBox="0 0 21 24" fill="none" xmlns="http://www.w3.org/2000/svg">
<path d="M17.2985 12.1662C17.2125 12.0808 17.1104 12.0131 16.9982 11.9671C16.886 11.9211 16.7658 11.8976 16.6445 11.898C16.5232 11.8984 16.4032 11.9228 16.2913 11.9696C16.1794 12.0164 16.0778 12.0848 15.9924 12.1708C15.9069 12.2569 15.8392 12.359 15.7932 12.4712C15.7472 12.5834 15.7237 12.7036 15.7242 12.8249C15.7246 12.9462 15.7489 13.0662 15.7957 13.1781C15.8425 13.29 15.9109 13.3915 15.997 13.477C16.7781 14.2498 17.3981 15.1699 17.8211 16.1839C18.2442 17.198 18.4619 18.2859 18.4616 19.3847C18.4616 20.5108 15.2216 22.1539 10.1539 22.1539C5.08621 22.1539 1.84621 20.5108 1.84621 19.3847C1.84475 18.2932 2.0584 17.212 2.47495 16.2031C2.89151 15.1942 3.50281 14.2772 4.2739 13.5047C4.44583 13.3317 4.54233 13.0978 4.54233 12.8539C4.54233 12.61 4.44583 12.3761 4.2739 12.2031C4.10095 12.0312 3.867 11.9347 3.62313 11.9347C3.37927 11.9347 3.14531 12.0312 2.97236 12.2031C2.02631 13.1439 1.27643 14.2631 0.766202 15.4959C0.255978 16.7287 -0.00443734 18.0505 5.72011e-05 19.3847C5.72011e-05 22.3847 5.2339 24.0001 10.1539 24.0001C15.0739 24.0001 20.3077 22.3847 20.3077 19.3847C20.3113 18.0418 20.047 16.7118 19.5303 15.4723C19.0136 14.2329 18.2549 13.1089 17.2985 12.1662Z" fill="#241F20"/>
<path d="M10.1539 12.9231C11.4318 12.9231 12.6811 12.5441 13.7437 11.8341C14.8063 11.1241 15.6345 10.115 16.1235 8.93426C16.6126 7.75357 16.7406 6.45437 16.4912 5.20096C16.2419 3.94754 15.6265 2.79621 14.7229 1.89254C13.8192 0.988881 12.6679 0.373479 11.4144 0.12416C10.161 -0.12516 8.86183 0.00279968 7.68114 0.491858C6.50044 0.980917 5.49129 1.80911 4.78129 2.8717C4.07128 3.9343 3.69232 5.18357 3.69232 6.46154C3.69232 8.17525 4.37309 9.81876 5.58486 11.0305C6.79664 12.2423 8.44015 12.9231 10.1539 12.9231ZM10.1539 1.84616C11.0667 1.84616 11.959 2.11684 12.718 2.62399C13.477 3.13113 14.0686 3.85196 14.4179 4.69531C14.7672 5.53866 14.8586 6.46666 14.6806 7.36196C14.5025 8.25725 14.0629 9.07964 13.4174 9.72511C12.772 10.3706 11.9496 10.8102 11.0543 10.9882C10.159 11.1663 9.23098 11.0749 8.38763 10.7256C7.54428 10.3763 6.82345 9.78471 6.31631 9.02571C5.80916 8.26671 5.53848 7.37438 5.53848 6.46154C5.53848 5.23746 6.02474 4.06352 6.89029 3.19797C7.75584 2.33242 8.92978 1.84616 10.1539 1.84616Z" fill="#241F20"/>
</svg>
