<svg width="21" height="28" viewBox="0 0 21 28" fill="none" xmlns="http://www.w3.org/2000/svg">
<path fill-rule="evenodd" clip-rule="evenodd" d="M10.4912 24.6657C10.9795 24.6657 11.375 25.0612 11.375 25.5495C11.375 26.0378 10.9795 26.4334 10.4912 26.4334C10.0028 26.4334 9.60732 26.0378 9.60732 25.5495C9.60732 25.0612 10.0028 24.6657 10.4912 24.6657ZM4.78157 15.6174C4.76831 15.5909 4.75284 15.5666 4.73516 15.5423C4.65783 15.4163 4.58049 15.2904 4.50316 15.1467C4.42582 14.9921 4.34848 14.8462 4.27999 14.7115C4.21149 14.5656 4.1452 14.4109 4.08775 14.2563C4.03914 14.1215 3.98169 13.9668 3.92424 13.7834C3.83807 13.5227 3.59501 13.3592 3.33428 13.3592H1.66162C1.60417 13.3592 1.54672 13.3503 1.50694 13.3305C1.46938 13.3106 1.42077 13.2818 1.39205 13.2443C1.35448 13.2045 1.32355 13.1669 1.30587 13.1294C1.28598 13.0918 1.27715 13.0322 1.27715 12.9747V10.8668C1.27715 10.8093 1.28598 10.7607 1.29703 10.7209C1.31692 10.6811 1.34564 10.6347 1.39426 10.5861C1.43182 10.5486 1.47159 10.5176 1.50915 10.5088C1.54893 10.4889 1.60638 10.4801 1.66383 10.4801H3.19949C3.50884 10.4801 3.76073 10.2569 3.81818 9.96745C3.85575 9.80394 3.89552 9.64927 3.93308 9.51227C3.98169 9.3576 4.0303 9.21177 4.08775 9.05709C4.1452 8.91126 4.20265 8.75659 4.27999 8.61297C4.34848 8.45829 4.42582 8.32351 4.49211 8.18872C4.62689 7.93683 4.57828 7.64737 4.38605 7.45514L3.18845 6.24649C3.17961 6.23765 3.17961 6.23765 3.16856 6.23765C3.131 6.20009 3.10006 6.16031 3.08239 6.12275C3.0625 6.08519 3.0625 6.04542 3.0625 5.98797C3.0625 5.93052 3.07134 5.88191 3.09122 5.84213C3.11111 5.79352 3.13984 5.75596 3.18845 5.70735L4.66667 4.23797C4.71528 4.18935 4.75284 4.16063 4.80145 4.14074C4.84122 4.12086 4.88763 4.11202 4.94729 4.11202C5.00473 4.11202 5.05335 4.12086 5.09312 4.14074C5.13289 4.16063 5.17929 4.18935 5.21907 4.22692H5.2279L6.31944 5.31846C6.53157 5.53058 6.86963 5.5593 7.11269 5.38696C7.23864 5.30962 7.36458 5.23228 7.50821 5.15495C7.66288 5.07761 7.80871 5.00028 7.9435 4.93178C8.08933 4.86328 8.244 4.79699 8.39867 4.73954C8.53346 4.69093 8.68813 4.63348 8.87153 4.57603C9.13226 4.48986 9.29577 4.2468 9.29577 3.98607V2.3112C9.29577 2.25375 9.30461 2.1963 9.32449 2.15653C9.34438 2.11896 9.37311 2.07919 9.40183 2.04163C9.4416 2.00406 9.47917 1.97313 9.51673 1.96429C9.55429 1.94441 9.61395 1.93557 9.6714 1.93557H11.1562H11.1739H11.3264C11.3838 1.93557 11.4413 1.94441 11.4811 1.96429C11.5186 1.97313 11.5584 2.00406 11.596 2.04163C11.6247 2.07919 11.6534 2.11896 11.6733 2.15653C11.6932 2.19409 11.702 2.25375 11.702 2.3112V3.98386C11.702 4.24459 11.8655 4.48544 12.1263 4.57382C12.3097 4.63127 12.4643 4.68872 12.5991 4.73733C12.7538 4.79478 12.9085 4.86328 13.0543 4.92957C13.1891 4.99807 13.3349 5.0754 13.4896 5.15274C13.6354 5.23007 13.7592 5.30741 13.8851 5.38475C14.1259 5.5593 14.464 5.53058 14.6783 5.31625L15.7699 4.22471H15.7787C15.8163 4.18714 15.8649 4.15621 15.9047 4.13853C15.9422 4.11865 15.9908 4.10981 16.0505 4.10981C16.108 4.10981 16.1566 4.11865 16.1963 4.13853C16.2449 4.15842 16.2825 4.18714 16.3311 4.23576L17.8093 5.70514C17.858 5.75375 17.8867 5.79131 17.9066 5.83992C17.9265 5.87749 17.9353 5.9261 17.9353 5.98576C17.9353 6.04321 17.9353 6.08298 17.9154 6.12054C17.8955 6.16031 17.8668 6.19788 17.8292 6.23544C17.8204 6.23544 17.8204 6.23544 17.8093 6.24428L16.6117 7.45293C16.4195 7.64516 16.3709 7.93683 16.5057 8.18651C16.5742 8.3213 16.6515 8.45608 16.7178 8.61076C16.7951 8.75659 16.8526 8.91126 16.91 9.05488C16.9675 9.20956 17.0161 9.35539 17.0647 9.51006C17.1023 9.64485 17.142 9.79952 17.1796 9.96524C17.2371 10.2547 17.489 10.4779 17.7983 10.4779H19.334C19.3914 10.4779 19.4489 10.4867 19.4886 10.5066C19.5262 10.5154 19.566 10.5442 19.6035 10.5839C19.6521 10.6325 19.6809 10.6811 19.7008 10.7187C19.7096 10.7563 19.7206 10.8049 19.7206 10.8645V12.9725C19.7206 13.0299 19.7118 13.0874 19.6919 13.1272C19.672 13.1669 19.6433 13.2045 19.6057 13.2421C19.577 13.2796 19.5284 13.3106 19.4908 13.3282C19.4511 13.3481 19.3936 13.357 19.3362 13.357H17.6635C17.4028 13.357 17.1619 13.5205 17.0735 13.7812C17.0161 13.9646 16.9586 14.1193 16.91 14.2541C16.8526 14.4087 16.7841 14.5634 16.7178 14.7092C16.6493 14.844 16.572 14.9899 16.4946 15.1445C16.4173 15.2904 16.34 15.4163 16.2626 15.54C16.2449 15.5644 16.2295 15.5887 16.2162 15.6152H17.679C17.7408 15.4914 17.8027 15.3589 17.8668 15.2219C17.9441 15.0473 18.0215 14.875 18.09 14.7004C18.0988 14.6717 18.1187 14.6319 18.1297 14.6032H19.3671C19.5903 14.6032 19.8024 14.5656 19.9946 14.4883C20.1869 14.4109 20.3725 14.285 20.5271 14.1303C20.6818 13.9757 20.8078 13.8011 20.8851 13.5978C20.9624 13.3945 21 13.1912 21 12.9703V10.8645C21 10.6524 20.9514 10.4403 20.8741 10.2459C20.7967 10.0536 20.6818 9.87906 20.5271 9.72439L20.5183 9.71555C20.3636 9.56088 20.1891 9.43494 19.9968 9.3576C19.8046 9.27143 19.5903 9.23165 19.3693 9.23165H18.3153C18.3153 9.20293 18.3065 9.18304 18.2955 9.15432C18.238 8.97092 18.1806 8.78752 18.1121 8.61297C18.0347 8.42957 17.9662 8.25501 17.8889 8.0915C17.8801 8.07161 17.8602 8.04289 17.8513 8.01417L18.7219 7.13475C18.8854 6.98891 19.0025 6.81656 19.0887 6.62212C19.166 6.42988 19.2146 6.21555 19.2146 5.99459C19.2146 5.77143 19.1771 5.57035 19.0887 5.36707C19.0025 5.17483 18.8854 5.00028 18.7307 4.8456H18.7219L17.2437 3.37622C17.089 3.22155 16.9145 3.10665 16.7112 3.01827C16.5079 2.93209 16.3046 2.89232 16.0836 2.89232C15.8715 2.89232 15.6594 2.92988 15.4561 3.01827C15.2528 3.0956 15.0783 3.22155 14.9236 3.37622L14.1701 4.12086L14.1127 4.09213C13.958 4.00596 13.7835 3.92862 13.6001 3.84024C13.4255 3.7629 13.2532 3.68557 13.0786 3.61707C13.0499 3.60823 13.0101 3.58834 12.9814 3.5773V2.33992C12.9814 2.11675 12.9438 1.90463 12.8665 1.7124C12.7891 1.51795 12.6632 1.33456 12.5085 1.17988C12.345 1.02521 12.1705 0.899266 11.976 0.82193C11.7749 0.744594 11.5717 0.707031 11.3485 0.707031H10.5862H10.416H9.65372C9.43056 0.707031 9.22948 0.744594 9.0262 0.82193C8.83396 0.899266 8.65941 1.02521 8.49369 1.17988C8.33902 1.33456 8.21307 1.51795 8.13573 1.7124C8.0584 1.90463 8.02083 2.11896 8.02083 2.33992V3.5773C7.99211 3.58613 7.95234 3.60602 7.92361 3.61707C7.74905 3.68557 7.5767 3.7629 7.40215 3.84024C7.21875 3.92641 7.04419 4.00375 6.88952 4.09213L6.83207 4.12086L6.0786 3.37622C5.92393 3.22155 5.74937 3.0956 5.54609 3.01827C5.3428 2.93209 5.13068 2.89232 4.91856 2.89232C4.69539 2.89232 4.49432 2.92988 4.29104 3.01827C4.08775 3.10444 3.91319 3.22155 3.75852 3.37622L2.2803 4.8456H2.27146C2.11679 5.00028 2.00189 5.17483 1.91351 5.36707C1.82734 5.56814 1.78756 5.77143 1.78756 5.99238C1.78756 6.21555 1.83617 6.42768 1.91351 6.61991C1.99968 6.81215 2.11679 6.9867 2.2803 7.13254L3.15088 8.01196C3.14205 8.04068 3.12216 8.06941 3.11332 8.08929C3.03598 8.2528 2.96749 8.42736 2.89015 8.61076C2.82165 8.78531 2.7642 8.96871 2.70675 9.15211C2.69792 9.18083 2.68687 9.20072 2.68687 9.22944H1.63289C1.40972 9.22944 1.1976 9.26922 1.00537 9.35539C0.813131 9.43273 0.638573 9.55867 0.483902 9.71334L0.475063 9.72218C0.320391 9.87685 0.205492 10.0514 0.128157 10.2436C0.0486111 10.4381 0 10.6524 0 10.8645V12.9703C0 13.1935 0.0375631 13.3945 0.114899 13.5978C0.192235 13.8011 0.318182 13.9757 0.472854 14.1303C0.627525 14.285 0.810922 14.4109 1.00537 14.4883C1.1976 14.5656 1.41193 14.6032 1.63289 14.6032H2.87027C2.8791 14.6319 2.89899 14.6717 2.91004 14.7004C2.97854 14.875 3.05587 15.0473 3.13321 15.2219C3.19949 15.3611 3.25915 15.4936 3.32102 15.6152H4.78157V15.6174ZM7.17456 13.6619C6.99116 13.6685 6.84975 13.7061 6.75473 13.7724C6.69949 13.8099 6.65972 13.8563 6.63542 13.9116C6.60669 13.9734 6.59343 14.0486 6.59564 14.1347C6.60227 14.3866 6.73485 14.7181 6.99116 15.1003L6.99558 15.1048L7.82639 16.4283C8.16004 16.9586 8.50915 17.5 8.94444 17.8955C9.36206 18.2777 9.86806 18.5363 10.5398 18.5385C11.2645 18.5407 11.797 18.2711 12.2279 17.869C12.6765 17.4491 13.03 16.8746 13.3769 16.3002L14.3138 14.7579C14.4883 14.3601 14.5524 14.0928 14.5126 13.9359C14.4883 13.8431 14.3867 13.7967 14.2099 13.7878C14.1723 13.7856 14.1348 13.7856 14.095 13.7856C14.053 13.7878 14.0088 13.79 13.9646 13.7945C13.9403 13.7967 13.916 13.7945 13.8917 13.79C13.8078 13.7945 13.7216 13.7878 13.6354 13.7768L13.9558 12.356C11.5761 12.7317 9.79514 10.964 7.27841 12.0025L7.4596 13.6751C7.36016 13.6774 7.26294 13.6752 7.17456 13.6619ZM14.5303 13.3636C14.7601 13.4343 14.9081 13.5801 14.97 13.8166C15.0363 14.0795 14.9634 14.4485 14.7424 14.9523C14.738 14.9611 14.7336 14.97 14.7292 14.9788L13.7812 16.5388C13.4167 17.1398 13.0455 17.743 12.5505 18.207L12.5262 18.2291C12.5726 18.2976 12.6256 18.3728 12.6787 18.4523C12.8422 18.6931 13.03 18.9693 13.2045 19.1837C14.2342 19.8245 16.4991 19.9968 17.3851 20.4895C19.6389 21.7468 18.8169 24.8005 18.9804 26.9968C18.9318 27.5161 18.6379 27.8144 18.059 27.8585H17.4337L18.1209 22.6505C18.1739 22.244 17.8867 21.9125 17.5309 21.9125H12.6985C12.8179 21.0618 12.904 20.2487 12.946 19.6344C12.7206 19.3847 12.4798 19.0312 12.2721 18.7263C12.2257 18.66 12.1815 18.5937 12.1395 18.5341C11.7042 18.8257 11.1872 19.0069 10.5398 19.0047C9.81723 19.0025 9.25379 18.755 8.78756 18.3772C8.6572 18.7683 8.46496 19.3074 8.27936 19.5659C8.26389 19.588 8.244 19.6079 8.22191 19.6234C8.30145 20.2575 8.41193 21.0707 8.5423 21.9147H3.5928C3.23927 21.9147 2.94981 22.2462 3.00284 22.6527L3.69003 27.8608H3.0625C2.48359 27.8166 2.18971 27.5183 2.1411 26.999C2.16982 24.6723 1.28598 21.8573 3.73643 20.4918C4.63352 19.9902 6.94697 19.82 7.95675 19.1594C8.11143 18.8699 8.28157 18.3484 8.38542 18.0391C8.39646 18.0037 8.37879 18.0612 8.39646 18.0104C8.02525 17.6126 7.72254 17.142 7.43087 16.678L6.60006 15.3567C6.29514 14.9037 6.13826 14.4883 6.12721 14.148C6.12279 13.9889 6.14931 13.8431 6.20896 13.7149C6.27083 13.5823 6.36585 13.4697 6.494 13.3835C6.55366 13.3437 6.62216 13.3084 6.69508 13.2796C6.64205 12.5615 6.61995 11.6578 6.6553 10.9021C6.67298 10.7231 6.70833 10.5419 6.75694 10.363C7.06187 9.27584 7.99653 8.49144 9.06376 8.12244C9.58081 7.94346 9.38194 7.51701 9.90562 7.54573C11.1474 7.61423 13.0609 8.4141 13.7967 9.26259C14.8308 10.4491 14.5634 11.9119 14.5303 13.3636ZM8.84722 20.6354C8.4274 20.1581 8.39205 19.6587 8.84722 19.1306C9.37311 19.2632 9.8548 19.4908 10.2989 19.7979C10.3939 19.756 10.5066 19.7383 10.6149 19.7471C11.0767 19.4201 11.6645 19.2875 12.1793 19.0423C12.7936 19.6411 12.7273 20.1912 12.1241 20.7017C11.786 20.6243 11.4656 20.505 11.1585 20.3481C11.1496 20.4277 11.1297 20.5138 11.0922 20.6067L11.2491 21.9125H9.99621L10.1531 20.6067C10.0559 20.4409 10.0183 20.2995 10.0205 20.1824C9.65593 20.4012 9.26042 20.5426 8.84722 20.6354Z" fill="#241F20"/>
</svg>
