<svg width="24" height="26" viewBox="0 0 24 26" fill="none" xmlns="http://www.w3.org/2000/svg">
<path d="M5.45455 0V3.27273H3.27273C1.47851 3.27273 0 4.75124 0 6.54545V21.8182C0 23.6124 1.47851 25.0909 3.27273 25.0909H20.7273C22.5215 25.0909 24 23.6124 24 21.8182V6.54545C24 4.75124 22.5215 3.27273 20.7273 3.27273H18.5455V0H16.3636V3.27273H7.63636V0H5.45455ZM3.27273 5.45455H20.7273C21.3505 5.45455 21.8182 5.92222 21.8182 6.54545V21.8182C21.8182 22.4414 21.3505 22.9091 20.7273 22.9091H3.27273C2.64949 22.9091 2.18182 22.4414 2.18182 21.8182V6.54545C2.18182 5.92222 2.64949 5.45455 3.27273 5.45455ZM14.1818 14.1818C13.5775 14.1818 13.0909 14.6684 13.0909 15.2727V19.6364C13.0909 20.2407 13.5775 20.7273 14.1818 20.7273H18.5455C19.1498 20.7273 19.6364 20.2407 19.6364 19.6364V15.2727C19.6364 14.6684 19.1498 14.1818 18.5455 14.1818H14.1818Z" fill="white"/>
</svg>
