<svg width="49" height="44" viewBox="0 0 49 44" fill="none" xmlns="http://www.w3.org/2000/svg">
<path d="M37.8636 19.8H20.0455V24.2H37.8636V30.8L49 22L37.8636 13.2V19.8ZM40.0909 35.2H34.0595C31.4877 37.4403 28.316 38.9001 24.9251 39.4041C21.5342 39.9081 18.0681 39.4349 14.9428 38.0413C11.8174 36.6477 9.16549 34.393 7.3053 31.5476C5.44511 28.7022 4.45565 25.3871 4.45565 22C4.45565 18.6129 5.44511 15.2978 7.3053 12.4524C9.16549 9.60703 11.8174 7.35227 14.9428 5.9587C18.0681 4.56513 21.5342 4.09195 24.9251 4.59593C28.316 5.09992 31.4877 6.55966 34.0595 8.8H40.0909C38.0181 6.06579 35.3283 3.84673 32.2352 2.31912C29.1421 0.791506 25.7309 -0.00256001 22.2727 6.20023e-06C9.9715 6.20023e-06 -3.8147e-06 9.84941 -3.8147e-06 22C-3.8147e-06 34.1506 9.9715 44 22.2727 44C25.7309 44.0026 29.1421 43.2085 32.2352 41.6809C35.3283 40.1533 38.0181 37.9342 40.0909 35.2Z" fill="#B50000"/>
</svg>
