<svg width="32" height="32" viewBox="0 0 32 32" fill="none" xmlns="http://www.w3.org/2000/svg">
<path d="M12.6797 28.2409C8.83891 28.2409 5.35076 26.0661 3.64845 22.6452C1.48957 20.729 0.254028 17.9911 0.254028 15.1035C0.254028 9.53545 4.76795 5.02153 10.3356 5.02153C14.1602 5.02153 17.6487 7.1857 19.3567 10.6051C21.5261 12.5243 22.7613 15.2585 22.7613 18.1589C22.7613 23.7266 18.2474 28.2409 12.6797 28.2409ZM15.771 5.30348C14.7554 5.30348 14.7554 3.75916 15.771 3.75916H22.7496C23.7651 3.75916 23.7651 5.30348 22.7496 5.30348H15.771ZM21.6728 25.7327C20.6572 25.7327 20.6572 24.1884 21.6728 24.1884H28.6514C29.6669 24.1884 29.6669 25.7327 28.6514 25.7327H21.6728ZM24.0059 18.9231C22.9903 18.9231 22.9903 17.3788 24.0059 17.3788H30.9845C32 17.3788 32 18.9231 30.9845 18.9231H24.0059ZM21.6728 12.1135C20.6572 12.1135 20.6572 10.5692 21.6728 10.5692H28.6514C29.6669 10.5692 29.6669 12.1135 28.6514 12.1135H21.6728ZM2.6155 18.7602C2.60378 18.5614 2.59773 18.3607 2.59773 18.1589C2.59773 12.5908 7.11166 8.07692 12.6797 8.07692C13.7898 8.07692 14.8579 8.25645 15.8568 8.58792C14.3102 7.27641 12.3683 6.56585 10.3356 6.56585C5.62062 6.56585 1.79798 10.3881 1.79798 15.1035C1.79798 16.3878 2.07237 17.598 2.6155 18.7602ZM17.6491 18.9311C16.6335 18.9311 16.6335 17.3867 17.6491 17.3867H19.046C20.0616 17.3867 20.0616 18.9311 19.046 18.9311H17.6491ZM6.31304 18.9311C5.29747 18.9311 5.29747 17.3867 6.31304 17.3867H7.70996C8.72553 17.3867 8.72553 18.9311 7.70996 18.9311H6.31304ZM11.9075 11.6834C11.9075 10.6678 13.4515 10.6678 13.4515 11.6834V12.3301C14.952 12.6868 16.025 14.0312 16.025 15.5858C16.025 16.6013 14.4807 16.6013 14.4807 15.5858C14.4807 14.5887 13.6764 13.7841 12.6793 13.7841C11.6827 13.7841 10.8784 14.5891 10.8784 15.5858C10.8784 16.5805 11.6849 17.3871 12.6793 17.3871C14.5268 17.3871 16.025 18.8849 16.025 20.7324C16.025 22.2869 14.952 23.6313 13.4515 23.9881V24.634C13.4515 25.6496 11.9075 25.6496 11.9075 24.634V23.9885C10.4108 23.6351 9.33404 22.2854 9.33404 20.7324C9.33404 19.7168 10.8784 19.7168 10.8784 20.7324C10.8784 21.7162 11.6868 22.547 12.6793 22.5337C13.6722 22.547 14.4807 21.7162 14.4807 20.7324C14.4807 19.7376 13.6741 18.9311 12.6793 18.9311C10.8323 18.9311 9.33404 17.4332 9.33404 15.5858C9.33404 14.0331 10.4108 12.6831 11.9075 12.3297V11.6834ZM12.6797 26.6965C17.3947 26.6965 21.2173 22.8739 21.2173 18.1589C21.2173 13.4435 17.3947 9.62125 12.6797 9.62125C7.96433 9.62125 4.14168 13.4435 4.14168 18.1589C4.14168 22.8743 7.96433 26.6965 12.6797 26.6965Z" fill="#008479"/>
</svg>
