<svg width="55" height="57" viewBox="0 0 55 57" fill="none" xmlns="http://www.w3.org/2000/svg">
<path d="M52.1795 32.68C51.2987 31.4642 50.8245 30.0013 50.8245 28.5C50.8245 26.9987 51.2987 25.5358 52.1795 24.32L53.9845 21.8262C54.2052 21.5217 54.3504 21.1692 54.4082 20.7975C54.466 20.4259 54.4347 20.0459 54.317 19.6887C54.198 19.3353 53.9989 19.0142 53.7352 18.7505C53.4715 18.4868 53.1504 18.2877 52.797 18.1687L49.8757 17.2187C48.4447 16.7571 47.1973 15.8528 46.3137 14.6362C45.43 13.4195 44.9558 11.9536 44.9595 10.45V7.36249C44.9592 6.98763 44.8702 6.61816 44.6997 6.2843C44.5293 5.95043 44.2822 5.66166 43.9788 5.44159C43.6753 5.22152 43.324 5.07641 42.9537 5.01813C42.5834 4.95984 42.2046 4.99004 41.8482 5.10624L38.9032 6.05624C37.4735 6.51889 35.9341 6.51765 34.5051 6.0527C33.0761 5.58774 31.8307 4.68289 30.947 3.46749L29.142 0.973742C28.9115 0.684725 28.6189 0.45135 28.2858 0.290956C27.9528 0.130563 27.5879 0.0472717 27.2182 0.0472717C26.8486 0.0472717 26.4836 0.130563 26.1506 0.290956C25.8176 0.45135 25.5249 0.684725 25.2945 0.973742L23.4895 3.46749C22.6057 4.68289 21.3603 5.58774 19.9313 6.0527C18.5024 6.51765 16.9629 6.51889 15.5332 6.05624L12.5882 5.10624C12.2318 4.99004 11.853 4.95984 11.4827 5.01813C11.1124 5.07641 10.7611 5.22152 10.4577 5.44159C10.1542 5.66166 9.90715 5.95043 9.7367 6.2843C9.56624 6.61816 9.47724 6.98763 9.47696 7.36249V10.45C9.48061 11.9536 9.00638 13.4195 8.12274 14.6362C7.2391 15.8528 5.99175 16.7571 4.56071 17.2187L1.63946 18.1687C1.28604 18.2877 0.964931 18.4868 0.701243 18.7505C0.437556 19.0142 0.238438 19.3353 0.11946 19.6887C0.00168735 20.0459 -0.0295826 20.4259 0.0282237 20.7975C0.08603 21.1692 0.23126 21.5217 0.45196 21.8262L2.25696 24.32C3.13772 25.5358 3.61193 26.9987 3.61193 28.5C3.61193 30.0013 3.13772 31.4642 2.25696 32.68L0.45196 35.1737C0.23126 35.4783 0.08603 35.8308 0.0282237 36.2024C-0.0295826 36.5741 0.00168735 36.9541 0.11946 37.3112C0.238438 37.6647 0.437556 37.9858 0.701243 38.2495C0.964931 38.5131 1.28604 38.7123 1.63946 38.8312L4.56071 39.7812C5.99175 40.2429 7.2391 41.1472 8.12274 42.3638C9.00638 43.5804 9.48061 45.0464 9.47696 46.55V49.6375C9.47724 50.0124 9.56624 50.3818 9.7367 50.7157C9.90715 51.0496 10.1542 51.3383 10.4577 51.5584C10.7611 51.7785 11.1124 51.9236 11.4827 51.9819C11.853 52.0401 12.2318 52.01 12.5882 51.8937L15.5095 50.9437C16.9422 50.4733 18.4875 50.4706 19.9219 50.9359C21.3564 51.4012 22.6057 52.3106 23.4895 53.5325L25.2945 56.0262C25.5162 56.3281 25.8059 56.5736 26.1401 56.7428C26.4743 56.912 26.8436 57.0002 27.2182 57.0002C27.5928 57.0002 27.9621 56.912 28.2963 56.7428C28.6305 56.5736 28.9202 56.3281 29.142 56.0262L30.947 53.5325C31.8322 52.3123 33.0816 51.4043 34.5156 50.9391C35.9495 50.4739 37.494 50.4756 38.927 50.9437L41.8482 51.8937C42.2046 52.01 42.5834 52.0401 42.9537 51.9819C43.324 51.9236 43.6753 51.7785 43.9788 51.5584C44.2822 51.3383 44.5293 51.0496 44.6997 50.7157C44.8702 50.3818 44.9592 50.0124 44.9595 49.6375V46.55C44.9558 45.0464 45.43 43.5804 46.3137 42.3638C47.1973 41.1472 48.4447 40.2429 49.8757 39.7812L52.797 38.8312C53.1504 38.7123 53.4715 38.5131 53.7352 38.2495C53.9989 37.9858 54.198 37.6647 54.317 37.3112C54.4347 36.9541 54.466 36.5741 54.4082 36.2024C54.3504 35.8308 54.2052 35.4783 53.9845 35.1737L52.1795 32.68ZM38.4045 25.4291L26.5295 37.3041C26.0841 37.7494 25.4801 37.9995 24.8503 37.9995C24.2206 37.9995 23.6166 37.7494 23.1712 37.3041L16.0462 30.1791C15.8194 29.96 15.6384 29.698 15.514 29.4082C15.3895 29.1184 15.324 28.8068 15.3212 28.4914C15.3185 28.1761 15.3786 27.8634 15.498 27.5715C15.6174 27.2796 15.7938 27.0144 16.0168 26.7914C16.2398 26.5684 16.5049 26.3921 16.7968 26.2727C17.0887 26.1532 17.4014 26.0932 17.7168 26.0959C18.0321 26.0986 18.3438 26.1642 18.6335 26.2886C18.9233 26.4131 19.1854 26.594 19.4045 26.8209L24.8432 32.2667L35.0391 22.0709C35.487 21.6382 36.0869 21.3989 36.7097 21.4043C37.3324 21.4097 37.9281 21.6595 38.3684 22.0998C38.8088 22.5401 39.0585 23.1358 39.0639 23.7585C39.0694 24.3813 38.83 24.9812 38.3973 25.4291H38.4045Z" fill="#FF914D"/>
</svg>
