<svg width="26" height="16" viewBox="0 0 26 16" fill="none" xmlns="http://www.w3.org/2000/svg">
<path d="M13 5.68674C14.2441 5.68674 15.2578 6.7239 15.2578 7.9944C15.2578 9.2649 14.243 10.2689 13 10.2689C11.757 10.2689 10.7747 9.2649 10.7747 7.9944C10.7747 6.7239 11.757 5.68674 13 5.68674ZM13 0C20.3964 0 25.7298 7.09103 25.7298 7.09103C26.0901 7.55984 26.0901 8.39578 25.7298 8.86352C25.7298 8.86352 20.3954 15.9545 13 15.9545C5.60464 15.9545 0.270179 8.86352 0.270179 8.86352C-0.0900596 8.39471 -0.0900596 7.55877 0.270179 7.09103C0.270179 7.09103 5.60464 0 13 0ZM13 13.7143C16.0767 13.7143 18.5963 11.1391 18.5963 7.9944C18.5963 4.84973 16.0767 2.27448 13 2.27448C9.92331 2.27448 7.40374 4.84973 7.40374 7.9944C7.40374 11.1391 9.92331 13.7143 13 13.7143Z" fill="#ADADBD"/>
</svg>
