<svg width="28" height="32" viewBox="0 0 28 32" fill="none" xmlns="http://www.w3.org/2000/svg">
<path d="M19.4813 23.4188L18.4188 24.4813C18.125 24.775 17.65 24.775 17.3563 24.4813L14 21.1187L10.6438 24.475C10.35 24.7688 9.875 24.7688 9.58125 24.475L8.51875 23.4125C8.225 23.1187 8.225 22.6438 8.51875 22.35L11.875 18.9937L8.51875 15.6375C8.225 15.3438 8.225 14.8687 8.51875 14.575L9.58125 13.5125C9.875 13.2188 10.35 13.2188 10.6438 13.5125L14 16.8687L17.3563 13.5125C17.65 13.2188 18.125 13.2188 18.4188 13.5125L19.4813 14.575C19.775 14.8687 19.775 15.3438 19.4813 15.6375L16.1187 19L19.475 22.3563C19.775 22.65 19.775 23.125 19.4813 23.4188ZM28 7V29C28 30.6562 26.6562 32 25 32H3C1.34375 32 0 30.6562 0 29V7C0 5.34375 1.34375 4 3 4H6V0.75C6 0.3375 6.3375 0 6.75 0H9.25C9.6625 0 10 0.3375 10 0.75V4H18V0.75C18 0.3375 18.3375 0 18.75 0H21.25C21.6625 0 22 0.3375 22 0.75V4H25C26.6562 4 28 5.34375 28 7ZM25 28.625V10H3V28.625C3 28.8312 3.16875 29 3.375 29H24.625C24.8312 29 25 28.8312 25 28.625Z" fill="#FF914C"/>
</svg>
