<svg width="15" height="20" viewBox="0 0 15 20" fill="none" xmlns="http://www.w3.org/2000/svg">
<path d="M10 0V5H15L10 0ZM8.75 5V0H1.875C0.839453 0 0 0.839453 0 1.875V18.125C0 19.1602 0.839453 20 1.875 20H13.125C14.1605 20 15 19.1605 15 18.125V6.25H10.0352C9.30859 6.25 8.75 5.69141 8.75 5ZM5 10.9375C5 11.1094 4.85938 11.25 4.6875 11.25H4.375C4.02734 11.25 3.75 11.5273 3.75 11.875V13.125C3.75 13.4727 4.02734 13.75 4.375 13.75H4.6875C4.85938 13.75 5 13.8906 5 14.0625V14.6875C5 14.8594 4.85938 15 4.6875 15H4.375C3.33984 15 2.5 14.1602 2.5 13.125V11.875C2.5 10.8398 3.33984 10 4.375 10H4.6875C4.85938 10 5 10.1406 5 10.3125V10.9375ZM6.73047 15H6.25C6.0791 15 5.9375 14.8584 5.9375 14.6875V14.0625C5.9375 13.8906 6.07812 13.75 6.25 13.75H6.72852C6.96289 13.75 7.13398 13.6133 7.13398 13.4912C7.13398 13.4424 7.10469 13.3887 7.05098 13.3398L6.19629 12.6074C5.87109 12.3242 5.67969 11.9258 5.67969 11.5078C5.67969 10.6797 6.42188 10 7.33594 10H7.8125C7.9834 10 8.125 10.1416 8.125 10.3125V10.9375C8.125 11.1094 7.98438 11.25 7.8125 11.25H7.33594C7.10156 11.25 6.93047 11.3867 6.93047 11.5088C6.93047 11.5576 6.95977 11.6113 7.01348 11.6602L7.86816 12.3926C8.19531 12.6758 8.38574 13.0762 8.38574 13.491C8.38281 14.3203 7.64062 15 6.73047 15ZM11.25 11.125V10.3125C11.25 10.1406 11.3906 10 11.5625 10H12.1875C12.3594 10 12.5 10.1406 12.5 10.3125V11.123C12.5 12.5098 11.9969 13.8184 11.084 14.8C10.9688 14.9258 10.8008 15 10.625 15C10.4492 15 10.2832 14.9268 10.166 14.7998C9.25391 13.8203 8.75 12.5117 8.75 11.125V10.3125C8.75 10.1406 8.89062 10 9.0625 10H9.6875C9.85938 10 10 10.1406 10 10.3125V11.123C10 11.9191 10.2246 12.6953 10.625 13.3449C11.0273 12.6953 11.25 11.918 11.25 11.125Z" fill="#008479"/>
</svg>
