<svg width="28" height="15" viewBox="0 0 28 15" fill="none" xmlns="http://www.w3.org/2000/svg">
<path d="M8.06 0.295798C8.15373 0.388761 8.22812 0.499362 8.27889 0.621222C8.32966 0.743081 8.3558 0.873786 8.3558 1.0058C8.3558 1.13781 8.32966 1.26852 8.27889 1.39038C8.22812 1.51223 8.15373 1.62284 8.06 1.7158L3.46 6.3158H27C27.2652 6.3158 27.5196 6.42115 27.7071 6.60869C27.8946 6.79623 28 7.05058 28 7.3158C28 7.58102 27.8946 7.83537 27.7071 8.0229C27.5196 8.21044 27.2652 8.3158 27 8.3158H3.48L8.06 12.8858C8.24625 13.0732 8.35079 13.3266 8.35079 13.5908C8.35079 13.855 8.24625 14.1084 8.06 14.2958C7.87264 14.482 7.61918 14.5866 7.355 14.5866C7.09081 14.5866 6.83736 14.482 6.65 14.2958L0.289999 7.9358C0.204397 7.85367 0.136286 7.75508 0.089756 7.64596C0.0432262 7.53683 0.0192413 7.41943 0.0192413 7.3008C0.0192413 7.18217 0.0432262 7.06476 0.089756 6.95564C0.136286 6.84652 0.204397 6.74793 0.289999 6.6658L6.64 0.295798C6.73296 0.20207 6.84356 0.127676 6.96542 0.0769072C7.08728 0.0261385 7.21799 0 7.35 0C7.48201 0 7.61272 0.0261385 7.73458 0.0769072C7.85643 0.127676 7.96704 0.20207 8.06 0.295798Z" fill="#008479"/>
</svg>
