<svg width="23" height="20" viewBox="0 0 23 20" fill="none" xmlns="http://www.w3.org/2000/svg">
<path d="M18.8889 5.55556H3.33333C1.49444 5.55556 0 7.05 0 8.88889V15.5556H4.44444V20H17.7778V15.5556H22.2222V8.88889C22.2222 7.05 20.7278 5.55556 18.8889 5.55556ZM15.5556 17.7778H6.66667V12.2222H15.5556V17.7778ZM18.8889 10C18.2722 10 17.7778 9.50556 17.7778 8.88889C17.7778 8.27222 18.2722 7.77778 18.8889 7.77778C19.5056 7.77778 20 8.27222 20 8.88889C20 9.50556 19.5056 10 18.8889 10ZM17.7778 0H4.44444V4.44444H17.7778V0Z" fill="#008479"/>
</svg>
