<svg width="25" height="20" viewBox="0 0 25 20" fill="none" xmlns="http://www.w3.org/2000/svg">
<path d="M23.75 15H23.3333V1.25C23.3333 0.918479 23.2016 0.600537 22.9672 0.366116C22.7328 0.131696 22.4149 0 22.0833 0H2.91667C2.58515 0 2.2672 0.131696 2.03278 0.366116C1.79836 0.600537 1.66667 0.918479 1.66667 1.25V15H1.25C0.918479 15 0.600537 15.1317 0.366117 15.3661C0.131696 15.6005 0 15.9185 0 16.25V17.0833C0 17.8569 0.307291 18.5987 0.854272 19.1457C1.40125 19.6927 2.14312 20 2.91667 20H22.0833C22.8569 20 23.5987 19.6927 24.1457 19.1457C24.6927 18.5987 25 17.8569 25 17.0833V16.25C25 15.9185 24.8683 15.6005 24.6339 15.3661C24.3995 15.1317 24.0815 15 23.75 15ZM2.5 1.25C2.5 1.13949 2.5439 1.03351 2.62204 0.955372C2.70018 0.877232 2.80616 0.833333 2.91667 0.833333H22.0833C22.1938 0.833333 22.2998 0.877232 22.378 0.955372C22.4561 1.03351 22.5 1.13949 22.5 1.25V15H2.5V1.25ZM13.9208 16.35C13.898 16.4424 13.8442 16.5243 13.7684 16.5819C13.6926 16.6395 13.5993 16.6694 13.5042 16.6667H11.4833C11.3882 16.6694 11.2949 16.6395 11.2191 16.5819C11.1433 16.5243 11.0895 16.4424 11.0667 16.35L10.95 15.8333H14.05L13.9208 16.35Z" fill="white"/>
<path d="M8.42508 7.82948C8.75195 7.55433 8.98631 7.18533 9.0964 6.77249C9.20649 6.35966 9.18699 5.92296 9.04054 5.52158C8.89409 5.12021 8.62778 4.77356 8.27769 4.52864C7.9276 4.28371 7.51067 4.15234 7.08341 4.15234C6.65616 4.15234 6.23923 4.28371 5.88914 4.52864C5.53905 4.77356 5.27274 5.12021 5.12629 5.52158C4.97984 5.92296 4.96034 6.35966 5.07043 6.77249C5.18052 7.18533 5.41488 7.55433 5.74175 7.82948C5.26745 8.0752 4.86974 8.44645 4.592 8.90273C4.31426 9.35902 4.16716 9.88281 4.16675 10.417V12.0836C4.16675 12.4152 4.29844 12.7331 4.53286 12.9675C4.76728 13.202 5.08523 13.3336 5.41675 13.3336H8.75008C9.0816 13.3336 9.39954 13.202 9.63397 12.9675C9.86839 12.7331 10.0001 12.4152 10.0001 12.0836V10.417C9.99967 9.88281 9.85257 9.35902 9.57483 8.90273C9.29709 8.44645 8.89938 8.0752 8.42508 7.82948ZM5.83341 6.25031C5.83341 6.00309 5.90673 5.76141 6.04408 5.55585C6.18143 5.35029 6.37665 5.19007 6.60506 5.09546C6.83347 5.00085 7.0848 4.9761 7.32728 5.02433C7.56975 5.07256 7.79248 5.19161 7.9673 5.36643C8.14211 5.54125 8.26117 5.76397 8.3094 6.00645C8.35763 6.24893 8.33287 6.50026 8.23826 6.72867C8.14365 6.95708 7.98344 7.1523 7.77788 7.28965C7.57232 7.427 7.33064 7.50031 7.08341 7.50031C6.75189 7.50031 6.43395 7.36862 6.19953 7.1342C5.96511 6.89978 5.83341 6.58183 5.83341 6.25031ZM9.16675 12.0836C9.16675 12.1942 9.12285 12.3001 9.04471 12.3783C8.96657 12.4564 8.86059 12.5003 8.75008 12.5003H5.41675C5.30624 12.5003 5.20026 12.4564 5.12212 12.3783C5.04398 12.3001 5.00008 12.1942 5.00008 12.0836V10.417C5.00008 9.86445 5.21957 9.33454 5.61028 8.94384C6.00098 8.55314 6.53088 8.33365 7.08341 8.33365C7.63595 8.33365 8.16585 8.55314 8.55655 8.94384C8.94725 9.33454 9.16675 9.86445 9.16675 10.417V12.0836Z" fill="white"/>
<path d="M19.5834 2.5H12.9167C12.5852 2.5 12.2673 2.6317 12.0329 2.86612C11.7984 3.10054 11.6667 3.41848 11.6667 3.75V10.4167C11.6667 10.7482 11.7984 11.0661 12.0329 11.3005C12.2673 11.535 12.5852 11.6667 12.9167 11.6667H19.5834C19.9149 11.6667 20.2329 11.535 20.4673 11.3005C20.7017 11.0661 20.8334 10.7482 20.8334 10.4167V3.75C20.8334 3.41848 20.7017 3.10054 20.4673 2.86612C20.2329 2.6317 19.9149 2.5 19.5834 2.5ZM14.1667 4.58333H15.8334C15.9439 4.58333 16.0499 4.62723 16.128 4.70537C16.2062 4.78351 16.2501 4.88949 16.2501 5C16.2501 5.11051 16.2062 5.21649 16.128 5.29463C16.0499 5.37277 15.9439 5.41667 15.8334 5.41667H14.1667C14.0562 5.41667 13.9503 5.37277 13.8721 5.29463C13.794 5.21649 13.7501 5.11051 13.7501 5C13.7501 4.88949 13.794 4.78351 13.8721 4.70537C13.9503 4.62723 14.0562 4.58333 14.1667 4.58333ZM18.3334 9.58333H14.1667C14.0562 9.58333 13.9503 9.53944 13.8721 9.4613C13.794 9.38315 13.7501 9.27717 13.7501 9.16667C13.7501 9.05616 13.794 8.95018 13.8721 8.87204C13.9503 8.7939 14.0562 8.75 14.1667 8.75H18.3334C18.4439 8.75 18.5499 8.7939 18.628 8.87204C18.7062 8.95018 18.7501 9.05616 18.7501 9.16667C18.7501 9.27717 18.7062 9.38315 18.628 9.4613C18.5499 9.53944 18.4439 9.58333 18.3334 9.58333ZM18.3334 7.5H14.1667C14.0562 7.5 13.9503 7.4561 13.8721 7.37796C13.794 7.29982 13.7501 7.19384 13.7501 7.08333C13.7501 6.97283 13.794 6.86685 13.8721 6.78871C13.9503 6.71057 14.0562 6.66667 14.1667 6.66667H18.3334C18.4439 6.66667 18.5499 6.71057 18.628 6.78871C18.7062 6.86685 18.7501 6.97283 18.7501 7.08333C18.7501 7.19384 18.7062 7.29982 18.628 7.37796C18.5499 7.4561 18.4439 7.5 18.3334 7.5Z" fill="white"/>
</svg>
